PathFileType	4	(X/Y/Z)	/Users/niels/Desktop/University/Third Semester/Perception and Action/Exam/Gymnastics Motion Tracking/Code for Gym Tracking/Analyzed Data/Webcam_Backflip/id2001_2_baseline_Sports2D/id2001_2_baseline_Sports2D_px_person00.trc
DataRate	CameraRate	NumFrames	NumMarkers	Units	OrigDataRate	OrigDataStartFrame	OrigNumFrames
29.888475836431226	29.888475836431226	12	22	m	29.888475836431226	235	269
Frame#	Time	Hip			RHip			RKnee			RAnkle			RBigToe			RSmallToe			RHeel			LHip			LKnee			LAnkle			LBigToe			LSmallToe			LHeel			Neck			Head			Nose			RShoulder			RElbow			RWrist			LShoulder			LElbow			LWrist		
		X1	Y1	Z1	X2	Y2	Z2	X3	Y3	Z3	X4	Y4	Z4	X5	Y5	Z5	X6	Y6	Z6	X7	Y7	Z7	X8	Y8	Z8	X9	Y9	Z9	X10	Y10	Z10	X11	Y11	Z11	X12	Y12	Z12	X13	Y13	Z13	X14	Y14	Z14	X15	Y15	Z15	X16	Y16	Z16	X17	Y17	Z17	X18	Y18	Z18	X19	Y19	Z19	X20	Y20	Z20	X21	Y21	Z21	X22	Y22	Z22
235	7.862562189054727	1.0565438772350457	-0.7284464233777543	0.0	0.992708458587249	-0.7392248710949582	0.0	1.0284787118083305	-1.0695869799441347	0.0	1.3076264577837704	-1.0980351596859146	0.0	1.6181173287050445	-1.2012344952322922	0.0	1.4560158694940302	-1.1162541512558737	0.0	1.324517942316045	-1.1033419199799093	0.0	1.1252470321871022	-0.7389611228619434	0.0	1.3576129581663068	-0.9797686298679329	0.0	1.0822469649385207	-1.0944226219599547	0.0	1.5866678466796875	-1.1980506591796878	0.0	1.4258959960937496	-1.08961279296875	0.0	1.1981303344577323	-1.0902687810262	0.0	1.0053066341872587	-0.1703569657696162	0.0	1.041012402629395	-0.011935649750505905	0.0	1.0471025903482165	-0.04674114978373927	0.0	0.9251865845594706	-0.24074666119914742	0.0	0.9615720232096193	-0.5252452273263706	0.0	1.22565463361049	-0.6352384952553625	0.0	1.069597591771731	-0.2512149837136702	0.0	1.101266343665548	-0.4964185262524897	0.0	1.242044494123123	-0.5645448653807965	0.0
236	7.896019900497513	1.0603208203694412	-0.72155498826885	0.0	0.9931204515158789	-0.7343008825480072	0.0	1.025130034118439	-1.0700854551030898	0.0	1.307626453063202	-1.0980351617661144	0.0	1.618117321074676	-1.2012344956316248	0.0	1.456015871220465	-1.1162541505718586	0.0	1.3245179428573872	-1.1033419195531153	0.0	1.1293633469418352	-0.7299801996029079	0.0	1.3741814788004587	-0.9494789207888018	0.0	1.154665755327035	-1.1050936051764912	0.0	1.5866678466796875	-1.1980506591796878	0.0	1.4258959960937496	-1.08961279296875	0.0	1.2013030111620584	-1.090514557349643	0.0	1.0057720754924715	-0.1672515705839857	0.0	1.044445015470171	-0.009406114136205544	0.0	1.0491668319094618	-0.043906049311530276	0.0	0.9258880712717217	-0.2384608110168173	0.0	0.966150091956692	-0.5162031639343828	0.0	1.2411674228241032	-0.5881528203321623	0.0	1.0694002073827849	-0.24710033597746703	0.0	1.0927676570018336	-0.48070141466637234	0.0	1.2285283430061007	-0.5137884092045799	0.0
237	7.9294776119403	1.0638807961001715	-0.7156868085778647	0.0	0.99336703445368	-0.7309813116799395	0.0	1.0217791263998315	-1.0704091526954145	0.0	1.3076264542931841	-1.09803516113646	0.0	1.6181173148207277	-1.2012344961846582	0.0	1.456015871371955	-1.1162541502405954	0.0	1.3245179434797982	-1.1033419192129361	0.0	1.1327399904381634	-0.7219960481533851	0.0	1.3874145736850214	-0.9203306924566705	0.0	1.2201149286327697	-1.10861463595949	0.0	1.5866678466796875	-1.1980506591796878	0.0	1.4258959960937496	-1.08961279296875	0.0	1.2071649641514743	-1.0908689595252345	0.0	1.0066701444891049	-0.16521977924961767	0.0	1.0491553518748464	-0.007332950783839796	0.0	1.0526530822185756	-0.04194578557675547	0.0	0.9268296595740325	-0.2373269251211678	0.0	0.9707459483592167	-0.509435928865771	0.0	1.248860864646562	-0.5441481847598836	0.0	1.0699431678148918	-0.24312851240382435	0.0	1.0863613443355147	-0.4646802781272449	0.0	1.2138252224681365	-0.4642461773449138	0.0
238	7.9629353233830855	1.066810524283865	-0.7111735526087473	0.0	0.993330386293961	-0.7288826834485377	0.0	1.0189087954993559	-1.070397495339976	0.0	1.307626457647688	-1.0980351595580677	0.0	1.618117310822415	-1.2012344966519195	0.0	1.4560158708324304	-1.1162541501443306	0.0	1.3245179439677348	-1.103341919000299	0.0	1.1351085584960832	-0.7154631642310396	0.0	1.3974212019997103	-0.8949567563307422	0.0	1.2672917643216832	-1.1051836472317254	0.0	1.5866678466796875	-1.1980506591796878	0.0	1.4258959960937496	-1.08961279296875	0.0	1.215710040734632	-1.0912548554472712	0.0	1.0080313750084595	-0.1642493207225948	0.0	1.0548588506675203	-0.00616395140405977	0.0	1.0570064600703593	-0.04088671256638538	0.0	0.9277591940126625	-0.2372269713022357	0.0	0.9749058023219077	-0.5050804736113416	0.0	1.2501934678683086	-0.5054543180260538	0.0	1.071157795043262	-0.23964410103011144	0.0	1.082683482689539	-0.44952623328058844	0.0	1.2016331577045014	-0.4222399399640999	0.0
239	7.996393034825871	1.0691313464316146	-0.7080699072375561	0.0	0.9931362024532607	-0.7275412469317599	0.0	1.0167795190125968	-1.069954602974014	0.0	1.3076264609740815	-1.0980351580139183	0.0	1.6181173088340615	-1.201234496957697	0.0	1.456015870153229	-1.1162541501710475	0.0	1.3245179442685047	-1.1033419188976856	0.0	1.1367175141256838	-0.7105333100927881	0.0	1.4045845231715373	-0.8754120112294481	0.0	1.2946689937336422	-1.0983621748711268	0.0	1.5866678466796875	-1.1980506591796878	0.0	1.4258959960937496	-1.08961279296875	0.0	1.2256611438313338	-1.0915189288788207	0.0	1.0097643912652834	-0.164046341069063	0.0	1.0611328133760425	-0.0059640620642844545	0.0	1.0616487296965422	-0.0405520591326471	0.0	0.9285603913965653	-0.23790269534847144	0.0	0.9780694129714619	-0.5029875689431569	0.0	1.2467918393061772	-0.4736057103761808	0.0	1.0728315402475315	-0.23682794909300298	0.0	1.0811961550588092	-0.4366594098360739	0.0	1.194067477566458	-0.39146782115208634	0.0
240	8.029850746268657	1.070973717867895	-0.7062902127061721	0.0	0.9929978005182464	-0.7268322517456155	0.0	1.015443478520086	-1.0691754175684984	0.0	1.3076264633913401	-1.0980351569005482	0.0	1.6181173082119218	-1.2012344971143083	0.0	1.4560158695996317	-1.1162541502413228	0.0	1.3245179444108577	-1.1033419188681775	0.0	1.1379686984454673	-0.7073089630849533	0.0	1.4093905549173789	-0.8631753011435089	0.0	1.306965827241658	-1.091735199285287	0.0	1.5866678466796875	-1.1980506591796878	0.0	1.4258959960937496	-1.08961279296875	0.0	1.2349811697871338	-1.0915689305827359	0.0	1.011675881497439	-0.164195982928672	0.0	1.0673041219131103	-0.006410041052647124	0.0	1.0660890253267343	-0.04070183639040224	0.0	0.9292089149775073	-0.23913089144069036	0.0	0.9798307026711767	-0.5027956704990797	0.0	1.2404054082991278	-0.4496562433677547	0.0	1.0746918062953796	-0.23468088152971878	0.0	1.081018231405249	-0.42716855253227004	0.0	1.1911616996786198	-0.3719415674903584	0.0
241	8.063308457711443	1.0723992553476178	-0.705673757963532	0.0	0.9930709137609748	-0.7269008302751712	0.0	1.014839556579664	-1.0683581369323014	0.0	1.3076264647810791	-1.0980351562654156	0.0	1.618117308321624	-1.2012344971670867	0.0	1.456015869247256	-1.1162541503106176	0.0	1.324517944449406	-1.103341918876809	0.0	1.1391392426228313	-0.7058682378055049	0.0	1.4120853662859347	-0.859151841683616	0.0	1.3101463025903328	-1.0874062137147715	0.0	1.5866678466796875	-1.1980506591796878	0.0	1.4258959960937496	-1.08961279296875	0.0	1.24213905262609	-1.0915282486326323	0.0	1.013511329135842	-0.16437921455708943	0.0	1.0725672497178447	-0.007113950940277156	0.0	1.0699100590304287	-0.04117100385563234	0.0	0.929616683836229	-0.2406818939086036	0.0	0.9799178750480538	-0.5040440358085777	0.0	1.2328455803834248	-0.43414095670824315	0.0	1.076521767205056	-0.23308830981807582	0.0	1.0817388150871354	-0.4210447834723841	0.0	1.191432990910761	-0.36163730540964056	0.0
242	8.096766169154229	1.073506620667822	-0.7060081037668283	0.0	0.9934088270459666	-0.7277106066978558	0.0	1.014950538774397	-1.0678189116033092	0.0	1.3076264653716754	-1.0980351559990722	0.0	1.6181173087038316	-1.201234497162762	0.0	1.4560158690730236	-1.1162541503608103	0.0	1.3245179444347026	-1.1033419188988558	0.0	1.1404013551599166	-0.7060895476085993	0.0	1.4125957444810748	-0.863634594466624	0.0	1.3088202343740896	-1.0859927091133803	0.0	1.5866678466796875	-1.1980506591796878	0.0	1.4258959960937496	-1.08961279296875	0.0	1.2467058994520146	-1.0916366911926658	0.0	1.0149888469131372	-0.16448970071949226	0.0	1.0762968580376766	-0.007920783273057104	0.0	1.072746332129169	-0.04188336561880428	0.0	0.9295836176022081	-0.24224016577712512	0.0	0.9781968322692793	-0.5063125550472614	0.0	1.2259221909211444	-0.42699297814615966	0.0	1.0782877705531528	-0.23195096327593182	0.0	1.0833736097427575	-0.41756491017335134	0.0	1.1930798406739698	-0.3578739108615986	0.0
243	8.130223880597015	1.0744545781176975	-0.7070776683789636	0.0	0.9939901151493931	-0.7288714746630072	0.0	1.0158431242691146	-1.0677029621243614	0.0	1.307626465473029	-1.0980351559568307	0.0	1.6181173090954022	-1.2012344971360318	0.0	1.4560158690193403	-1.1162541503895744	0.0	1.3245179444019841	-1.1033419189204918	0.0	1.1418901627141562	-0.7076068556418518	0.0	1.4106920789957944	-0.8762607308982994	0.0	1.305637432943103	-1.0869451061952795	0.0	1.5866678466796875	-1.1980506591796878	0.0	1.4258959960937496	-1.08961279296875	0.0	1.2490621699356526	-1.0919835978760843	0.0	1.0158936991661227	-0.16459720804742944	0.0	1.0782656186230488	-0.008913843144356252	0.0	1.0743005681437252	-0.042750384637486864	0.0	0.9289271732719138	-0.24349811339537733	0.0	0.9747982723617727	-0.5092583333407087	0.0	1.2213001532050085	-0.42767366956282166	0.0	1.0801032212545039	-0.23126522304418642	0.0	1.085684517345307	-0.4163585839844959	0.0	1.1948203803752762	-0.35816067534341495	0.0
244	8.163681592039802	1.075294421626377	-0.7087878089862797	0.0	0.9947512241631082	-0.7299860406108171	0.0	1.0173888961835191	-1.067926345122681	0.0	1.307626465345075	-1.0980351560184967	0.0	1.618117309385184	-1.201234497107265	0.0	1.4560158690299048	-1.1162541504017316	0.0	1.324517944370657	-1.1033419189361202	0.0	1.143634088173294	-0.7100534849412447	0.0	1.4061726113708237	-0.8960407310310731	0.0	1.3015862466710824	-1.0889941973835637	0.0	1.5866678466796875	-1.1980506591796878	0.0	1.4258959960937496	-1.08961279296875	0.0	1.2499069325510814	-1.0924425767778134	0.0	1.0161890645953073	-0.1648213413016198	0.0	1.078509849539005	-0.010146134470193502	0.0	1.074401709214728	-0.04358266920345173	0.0	0.9276738821172	-0.24430699500799002	0.0	0.9702100090101959	-0.5125884414579258	0.0	1.2200758675628331	-0.43557495515802497	0.0	1.08203591909998	-0.23105822268167303	0.0	1.0879841956720402	-0.41783973941101626	0.0	1.1963193925455842	-0.36085930772071656	0.0
245	8.197139303482588	1.0759269543985714	-0.7111864158427711	0.0	0.9956182459997063	-0.7309701508218831	0.0	1.0191023211102732	-1.0682614564735524	0.0	1.3076264651569875	-1.098035156106417	0.0	1.6181173095547576	-1.2012344970854196	0.0	1.4560158690641405	-1.116254150403753	0.0	1.324517944348357	-1.103341918945052	0.0	1.1454761039618815	-0.7132883729337954	0.0	1.3989421495662941	-0.9214097866465807	0.0	1.29685582367429	-1.090815771753022	0.0	1.5866678466796875	-1.1980506591796878	0.0	1.4258959960937496	-1.08961279296875	0.0	1.249910088834835	-1.0928461160486005	0.0	1.0160172100252016	-0.16521533662746926	0.0	1.0771361196020668	-0.0114601905571156	0.0	1.0731051511534284	-0.044126701210060536	0.0	0.9260995988044891	-0.2446986409652522	0.0	0.965241121591588	-0.5160850162207045	0.0	1.2222981053002124	-0.4503564054798808	0.0	1.0840546967432174	-0.23127570867045272	0.0	1.0896964677924583	-0.42280666102218933	0.0	1.1982128843775597	-0.36542254938947866	0.0
246	8.230597014925374	1.0762114530565043	-0.7142861849109771	0.0	0.9965231505402579	-0.7319888790790339	0.0	1.0205420768385582	-1.068511505009849	0.0	1.3076264649948266	-1.0980351561814523	0.0	1.618117309628955	-1.2012344970723257	0.0	1.4560158690989102	-1.1162541504010453	0.0	1.3245179443358006	-1.1033419189488094	0.0	1.1471053069831647	-0.7173068681728709	0.0	1.3888664982897	-0.9502098880475245	0.0	1.2918955404040469	-1.0917268036769008	0.0	1.5866678466796875	-1.1980506591796878	0.0	1.4258959960937496	-1.08961279296875	0.0	1.249564977047965	-1.0931178863429931	0.0	1.0156027213460816	-0.16575257713478314	0.0	1.0744299811929954	-0.012625382104249603	0.0	1.0707453044965818	-0.04421873415387725	0.0	0.9245890297513951	-0.24478852988814861	0.0	0.9608687223985065	-0.5196829041727312	0.0	1.226917528015877	-0.47192945151434457	0.0	1.0861405488605829	-0.2317583418936504	0.0	1.0910840799051371	-0.4315868321253492	0.0	1.201614660475861	-0.37222846953531735	0.0
